<?xml version="1.0" standalone="no"?>
<!DOCTYPE svg PUBLIC "-//W3C//DTD SVG 20010904//EN"
 "http://www.w3.org/TR/2001/REC-SVG-20010904/DTD/svg10.dtd">
<svg version="1.0" xmlns="http://www.w3.org/2000/svg"
 width="488.000000pt" height="488.000000pt" viewBox="0 0 488.000000 488.000000"
 preserveAspectRatio="xMidYMid meet">
<metadata>
Created by potrace 1.11, written by Peter Selinger 2001-2013
</metadata>
<g transform="translate(0.000000,488.000000) scale(0.100000,-0.100000)"
fill="#000000" stroke="none">
<path d="M2100 4855 c-256 -37 -488 -109 -725 -224 -163 -80 -348 -195 -465
-291 -96 -78 -262 -243 -348 -345 -78 -93 -216 -295 -258 -376 l-23 -47 154
-77 c85 -42 157 -77 161 -78 4 -1 12 7 18 18 6 11 13 22 16 25 3 3 18 25 32
50 40 69 121 176 177 232 51 51 72 56 29 7 -28 -30 -43 -54 -62 -94 -7 -16
-23 -39 -34 -51 -11 -11 -23 -31 -26 -45 -6 -18 -5 -21 3 -9 23 32 9 -2 -20
-52 -17 -29 -33 -67 -36 -84 -5 -29 -1 -35 38 -60 48 -30 309 -164 320 -164 4
0 28 34 55 76 45 73 106 153 170 220 31 33 93 77 81 58 -4 -7 0 -14 8 -18 8
-3 15 -12 15 -21 0 -20 16 -19 30 3 9 14 10 12 5 -12 -5 -23 -3 -27 9 -23 10
4 16 1 16 -9 0 -11 6 -15 20 -11 28 7 25 -2 -13 -43 -79 -87 -218 -302 -204
-316 7 -8 681 -344 688 -344 4 0 10 61 14 135 4 74 11 138 16 141 5 3 9 22 9
42 0 48 29 251 40 277 5 11 11 40 15 65 5 43 47 191 66 238 55 134 78 179 121
237 64 86 147 137 223 137 68 -1 305 -23 330 -31 17 -6 57 -17 90 -26 33 -9
68 -20 77 -26 10 -5 23 -9 29 -9 17 0 248 -106 259 -119 6 -8 40 -29 60 -38 8
-4 17 -9 20 -12 3 -3 28 -22 55 -41 52 -36 79 -58 151 -122 22 -21 46 -38 51
-38 14 0 363 357 418 428 32 41 41 59 34 69 -6 6 -7 18 -3 24 4 7 3 9 -4 5 -6
-4 -32 18 -59 51 -65 79 -295 294 -363 341 -30 20 -59 42 -65 48 -15 17 -102
74 -112 74 -16 0 -73 47 -66 54 4 4 0 4 -9 1 -9 -4 -25 -2 -35 4 -17 10 -17
10 2 11 13 1 9 5 -15 14 -93 36 -126 51 -140 62 -8 6 -26 15 -39 19 -19 6 -21
9 -10 17 11 7 9 8 -5 4 -10 -4 -28 0 -40 7 -12 8 -73 24 -136 36 -63 12 -124
24 -134 26 -24 5 -138 -42 -318 -129 -74 -37 -140 -66 -146 -66 -7 0 -12 -4
-12 -10 0 -5 -6 -10 -13 -10 -18 0 -75 -28 -82 -41 -4 -5 -18 -6 -32 -3 -18 5
-24 3 -19 -5 4 -6 1 -11 -8 -11 -9 0 -16 -4 -16 -10 0 -17 -26 -11 -46 11 -18
20 -18 20 11 14 18 -4 25 -3 18 2 -8 6 -2 13 20 22 18 8 34 17 37 20 12 14
108 60 113 55 3 -3 16 4 29 16 12 11 31 19 40 16 10 -2 16 0 13 4 -3 5 16 18
42 31 27 13 75 39 108 59 33 20 67 39 75 43 29 11 -406 5 -490 -8z m-19 -285
c5 0 9 -4 9 -10 0 -5 -7 -10 -15 -10 -8 0 -15 -5 -15 -11 0 -5 -4 -8 -9 -4 -6
3 -14 -2 -19 -11 -11 -19 -47 -11 -56 12 -5 13 -1 15 20 10 17 -5 23 -3 19 4
-3 6 3 10 15 10 14 0 19 4 14 12 -5 8 -2 9 10 5 10 -4 22 -7 27 -7z m-133 -56
c-9 -9 -22 -14 -30 -11 -8 3 -4 8 12 15 35 15 37 14 18 -4z m39 -10 c-3 -3
-12 -4 -19 -1 -8 3 -5 6 6 6 11 1 17 -2 13 -5z m-97 -24 c-19 -12 -30 -12 -30
-1 0 10 31 20 40 14 2 -2 -2 -8 -10 -13z m-33 -46 c-3 -3 -12 -4 -19 -1 -8 3
-5 6 6 6 11 1 17 -2 13 -5z m-462 -894 c3 -5 1 -10 -4 -10 -6 0 -11 5 -11 10
0 6 2 10 4 10 3 0 8 -4 11 -10z"/>
<path d="M3838 3729 c-126 -127 -228 -234 -228 -239 0 -5 13 -22 29 -38 37
-37 132 -178 168 -251 15 -31 30 -58 34 -61 3 -3 13 -27 23 -55 11 -27 22 -54
27 -60 4 -5 11 -28 15 -50 4 -22 10 -42 14 -45 4 -3 12 -30 19 -60 7 -30 17
-75 22 -100 24 -106 30 -206 26 -378 -3 -100 -9 -188 -15 -195 -5 -6 -12 -28
-15 -47 -10 -66 -29 -145 -36 -155 -4 -5 -16 -38 -27 -73 -10 -34 -22 -62 -26
-62 -5 0 -8 -6 -8 -14 0 -18 -60 -140 -71 -144 -5 -2 -9 -9 -9 -14 0 -10 -48
-91 -72 -123 -32 -42 -85 -106 -114 -139 l-35 -40 213 -213 c117 -118 228
-223 245 -234 31 -20 53 -19 53 2 0 5 4 15 10 22 72 88 117 160 197 316 23 46
47 89 53 96 6 7 15 26 20 42 5 15 23 62 40 103 65 156 105 293 140 483 50 272
52 673 5 887 -8 36 -26 119 -40 185 -15 66 -38 148 -51 182 -13 34 -24 65 -24
68 0 43 -178 409 -231 476 -16 20 -29 42 -29 47 0 6 -9 17 -20 25 -13 9 -18
20 -14 31 5 12 0 19 -14 23 -13 3 -19 10 -15 19 3 9 -2 14 -13 14 -11 0 -111
-93 -246 -231z"/>
<path d="M2384 3778 c-46 -55 -105 -196 -143 -343 -48 -185 -50 -209 -18 -236
l22 -19 -22 -19 c-13 -11 -23 -29 -23 -40 0 -12 -6 -21 -15 -21 -12 0 -15 -13
-15 -57 0 -32 -4 -76 -9 -98 -5 -22 -12 -99 -16 -172 l-7 -131 115 -56 c120
-59 133 -63 139 -44 6 16 38 2 38 -17 0 -8 18 -33 40 -55 37 -37 58 -52 46
-31 -10 16 5 41 24 41 10 0 20 -7 24 -15 8 -23 -4 -45 -26 -45 -13 0 9 -28 78
-95 54 -52 101 -95 106 -95 4 0 8 63 8 139 0 133 1 141 24 168 21 24 32 28 75
28 41 0 55 -5 76 -26 l26 -26 -1 -216 c0 -120 -3 -230 -6 -245 -5 -25 15 -48
236 -267 132 -132 244 -241 248 -242 12 -3 117 129 170 215 29 46 52 85 52 87
0 2 13 33 30 68 16 36 30 72 30 81 0 9 4 16 8 16 4 0 14 24 20 53 7 28 17 70
23 92 22 85 28 133 28 220 l1 89 -35 -37 c-44 -46 -75 -50 -75 -8 0 16 6 31
13 34 9 3 9 9 -2 30 -15 29 -9 57 13 57 8 0 28 -13 44 -30 17 -16 33 -30 36
-30 10 0 6 151 -5 205 -6 28 -13 66 -16 85 -3 19 -9 40 -14 45 -4 6 -11 30
-15 53 -4 23 -11 45 -15 48 -5 3 -9 13 -9 22 0 9 -14 44 -30 77 -16 33 -30 66
-30 73 0 6 -4 12 -9 12 -5 0 -11 8 -15 18 -7 20 -56 105 -65 112 -3 3 -22 26
-41 52 -19 26 -40 47 -47 45 -6 -1 -91 -80 -187 -175 -161 -158 -177 -172
-192 -157 -15 14 -14 19 12 53 16 20 65 75 109 120 154 161 205 217 205 227 0
6 -21 28 -47 50 -25 22 -63 55 -83 73 -21 17 -42 32 -48 32 -6 0 -12 4 -14 8
-9 21 -246 152 -275 152 -7 0 -13 5 -13 10 0 6 -8 10 -17 10 -19 0 -107 27
-135 41 -19 10 -48 12 -48 4 0 -2 9 -28 19 -57 37 -103 70 -215 76 -259 4 -24
8 -54 11 -67 4 -20 2 -23 -16 -17 -16 5 -20 2 -20 -14 0 -12 5 -21 12 -21 6 0
8 -3 5 -6 -10 -10 -37 16 -37 37 0 10 -4 20 -9 23 -4 3 -9 -64 -10 -149 -1
-146 -10 -205 -29 -205 -5 0 -15 28 -21 63 -21 105 -32 161 -41 197 -5 19 -16
67 -25 105 -36 149 -112 331 -163 388 -24 26 -57 21 -88 -15z m-149 -748 c0
-16 -6 -26 -18 -28 -19 -4 -32 20 -23 44 9 25 41 13 41 -16z m835 -64 c0 -3
-4 -8 -10 -11 -5 -3 -10 -1 -10 4 0 6 5 11 10 11 6 0 10 -2 10 -4z m-790 -36
c0 -15 -7 -20 -25 -20 -18 0 -25 5 -25 20 0 15 7 20 25 20 18 0 25 -5 25 -20z
m40 -105 c0 -31 -26 -43 -46 -23 -20 20 -7 48 22 48 19 0 24 -5 24 -25z m30
-101 c0 -17 -5 -24 -20 -24 -14 0 -20 7 -20 24 0 23 17 38 33 29 4 -2 7 -15 7
-29z m34 -80 c9 -3 16 -14 16 -24 0 -20 -23 -32 -45 -24 -18 7 -20 40 -2 47 6
3 13 6 14 6 1 1 8 -2 17 -5z m290 -179 c8 -23 -4 -45 -25 -45 -14 0 -19 7 -19
30 0 23 5 30 19 30 10 0 21 -7 25 -15z m332 0 c7 -18 -13 -45 -33 -45 -17 0
-27 24 -19 45 7 20 45 19 52 0z m110 0 c7 -18 -13 -45 -33 -45 -17 0 -27 24
-19 45 7 20 45 19 52 0z m108 -1 c7 -17 -9 -44 -26 -44 -5 0 -16 7 -25 15 -12
12 -13 19 -3 30 16 20 46 19 54 -1z m106 -14 c0 -23 -5 -30 -19 -30 -21 0 -33
22 -25 45 4 8 15 15 25 15 14 0 19 -7 19 -30z m112 5 c-8 -46 -52 -45 -52 0 0
23 4 26 28 23 21 -2 26 -8 24 -23z m115 9 c8 -20 -21 -49 -41 -41 -9 4 -16 18
-16 32 0 20 5 25 25 25 14 0 28 -7 32 -16z m93 -15 c0 -24 -4 -30 -17 -27 -11
2 -19 14 -21 31 -3 22 1 27 17 27 17 0 21 -6 21 -31z"/>
<path d="M209 3423 c-85 -182 -157 -444 -190 -683 -17 -123 -17 -477 0 -600 7
-52 24 -149 38 -215 84 -404 319 -856 591 -1137 l55 -57 31 26 c17 14 47 39
66 57 73 65 138 116 149 116 6 0 11 -7 11 -15 0 -9 6 -12 18 -9 10 4 13 2 7
-3 -6 -4 -30 -33 -55 -63 -25 -30 -70 -82 -102 -114 -67 -70 -71 -58 57 -165
182 -151 441 -304 671 -394 316 -125 701 -184 1026 -158 153 12 266 32 277 49
6 8 30 16 93 29 15 3 33 11 39 19 6 8 16 14 23 14 9 0 241 109 272 128 11 7
19 12 123 81 29 20 61 41 69 46 154 95 477 395 488 454 6 30 -3 41 -229 268
l-235 236 -23 -24 c-38 -38 -127 -109 -137 -109 -6 0 -12 -3 -14 -8 -4 -11
-103 -72 -116 -72 -5 0 -12 -4 -14 -9 -4 -12 -124 -71 -143 -71 -8 0 -15 -3
-15 -8 0 -9 -90 -42 -114 -42 -9 0 -16 -4 -16 -8 0 -5 -26 -14 -57 -21 -32 -6
-76 -16 -98 -21 -127 -27 -189 -32 -370 -27 -104 3 -206 10 -225 16 -19 6 -66
18 -105 26 -38 9 -81 20 -95 24 -79 27 -203 80 -255 110 -33 18 -79 44 -103
57 -23 12 -61 38 -85 56 -23 18 -53 42 -67 53 -100 78 -350 367 -350 404 0 5
-4 11 -8 13 -22 9 -134 271 -162 378 -6 25 -15 58 -21 75 -5 16 -17 103 -26
191 -17 166 -13 260 19 424 19 101 76 288 105 344 8 15 11 32 6 36 -9 9 -222
117 -295 149 -47 21 -108 30 -79 12 12 -8 12 -12 2 -25 -44 -53 -109 -517 -97
-691 10 -142 35 -322 58 -420 28 -120 96 -314 137 -390 11 -22 21 -44 21 -49
0 -6 11 -26 24 -45 13 -20 47 -76 76 -126 61 -103 139 -211 196 -271 163 -172
213 -220 300 -286 93 -70 256 -178 270 -178 3 0 18 -8 32 -18 24 -16 169 -82
292 -131 159 -65 479 -120 693 -121 177 0 483 42 524 72 6 5 23 6 36 2 17 -4
39 1 64 14 47 24 175 73 180 68 7 -7 -200 -126 -219 -126 -4 0 -31 -11 -60
-24 -29 -13 -75 -32 -103 -41 -27 -9 -59 -21 -70 -25 -11 -5 -42 -14 -70 -20
-27 -6 -68 -15 -90 -21 -22 -5 -76 -14 -120 -19 -44 -6 -108 -15 -141 -20
-149 -24 -408 -6 -624 44 -150 34 -178 42 -247 72 -17 8 -36 14 -42 14 -6 0
-19 4 -29 9 -9 5 -69 34 -132 65 -63 31 -124 62 -135 69 -48 29 -161 103 -175
113 -182 144 -254 213 -375 359 -112 136 -251 366 -304 505 -12 30 -26 64 -30
75 -37 83 -85 273 -112 445 -19 123 -14 475 10 605 35 195 83 356 147 492 19
42 33 80 31 86 -2 6 -72 45 -156 88 l-153 77 -39 -85z"/>
<path d="M1196 3012 c-18 -30 -68 -192 -86 -282 -36 -172 -25 -470 21 -620 35
-111 110 -291 129 -310 3 -3 14 -21 24 -40 64 -116 264 -327 388 -409 65 -44
218 -122 293 -150 96 -37 165 -50 165 -32 0 5 -7 22 -15 37 -8 16 -15 36 -15
45 0 8 -4 19 -8 25 -5 5 -17 38 -26 74 -10 36 -22 72 -26 81 -4 9 -11 42 -15
75 -4 32 -11 64 -15 69 -8 11 -13 43 -36 220 -30 227 -33 277 -35 567 l-2 298
-326 164 c-179 90 -339 171 -356 180 -33 18 -51 20 -59 8z"/>
<path d="M2141 2378 c1 -338 46 -681 129 -973 12 -45 16 -54 60 -147 27 -58
34 -66 46 -54 14 15 54 11 54 -6 0 -5 7 -3 15 6 18 18 42 11 47 -12 4 -19 72
114 84 163 4 17 10 35 14 40 8 10 16 42 47 180 32 147 56 310 69 470 l6 80
-153 150 c-149 145 -158 152 -277 213 -68 34 -127 62 -132 62 -6 0 -10 -69 -9
-172z m319 -27 c0 -10 -7 -24 -15 -31 -12 -10 -18 -9 -31 4 -21 22 -11 46 21
46 18 0 25 -5 25 -19z m-2 -118 c3 -19 -1 -23 -22 -23 -28 0 -41 14 -32 36 9
24 50 13 54 -13z m-10 -85 c22 -22 14 -48 -13 -48 -30 0 -43 24 -25 45 15 18
22 19 38 3z m10 -131 c3 -26 1 -28 -25 -25 -31 3 -44 35 -21 49 23 15 43 5 46
-24z m0 -109 c-2 -17 -10 -23 -28 -23 -18 0 -26 6 -28 23 -3 19 1 22 28 22 27
0 31 -3 28 -22z m2 -108 c0 -16 -7 -20 -30 -20 -18 0 -30 5 -30 13 0 20 10 27
37 27 16 0 23 -6 23 -20z m-2 -104 c5 -25 -12 -39 -37 -31 -24 7 -27 25 -9 43
17 17 42 11 46 -12z m-14 -92 c23 -9 21 -54 -3 -54 -28 0 -47 26 -31 45 14 17
13 17 34 9z m14 -136 c3 -24 0 -28 -23 -28 -27 0 -41 20 -31 46 10 27 51 13
54 -18z m-3 -108 c0 -33 -40 -41 -50 -11 -9 28 2 43 28 39 16 -2 22 -10 22
-28z m5 -111 c0 -16 -5 -20 -27 -17 -17 2 -29 10 -31 21 -3 13 3 17 27 17 25
0 31 -4 31 -21z"/>
<path d="M2906 1888 c-3 -13 -8 -48 -11 -78 -4 -30 -11 -77 -16 -105 -4 -27
-14 -85 -21 -127 -7 -42 -16 -80 -20 -84 -5 -4 -8 -17 -8 -30 0 -24 -25 -113
-46 -161 -8 -17 -14 -38 -14 -46 0 -9 -4 -18 -9 -21 -5 -3 -11 -16 -14 -28 -2
-13 -8 -30 -11 -40 -6 -14 -3 -15 26 -8 62 14 123 33 133 42 5 4 16 8 25 8 14
0 144 62 210 101 40 23 163 115 194 144 l28 28 -213 213 c-118 118 -217 214
-221 214 -4 0 -10 -10 -12 -22z"/>
</g>
</svg>
